HIERARCHY
ROOT Hips
{
	OFFSET 0.000000 0.000000 0.000000
	CHANNELS 6 Xposition Yposition Zposition Xrotation Yrotation Zrotation
	JOINT C_ctrl
	{
		OFFSET 0.000000 35.040482 -0.000011
		CHANNELS 3 Xrotation Yrotation Zrotation
		JOINT Bip01
		{
			OFFSET -41.537640 41.789009 -0.000007
			CHANNELS 3 Xrotation Yrotation Zrotation
			JOINT Bip01_Pelvis
			{
				OFFSET -2.462887 0.000000 0.000000
				CHANNELS 3 Xrotation Yrotation Zrotation
				JOINT BN_Tail_01
				{
					OFFSET -11.399368 7.351341 -0.000013
					CHANNELS 3 Xrotation Yrotation Zrotation
					JOINT BN_Tail_02
					{
						OFFSET -11.365196 -0.343025 0.000012
						CHANNELS 3 Xrotation Yrotation Zrotation
						JOINT BN_Tail_03
						{
							OFFSET -15.076256 -0.454979 0.000017
							CHANNELS 3 Xrotation Yrotation Zrotation
							JOINT BN_Tail_04
							{
								OFFSET -17.395691 -0.525002 0.000016
								CHANNELS 3 Xrotation Yrotation Zrotation
								JOINT BN_Tail_05
								{
									OFFSET -16.699837 -0.504005 0.000016
									CHANNELS 3 Xrotation Yrotation Zrotation
									End Site
									{
										OFFSET 0.503998 -16.699829 0.000067
									}
								}
							}
						}
					}
				}
				JOINT Bip01_Spine
				{
					OFFSET 8.297798 5.916809 -0.000020
					CHANNELS 3 Xrotation Yrotation Zrotation
					JOINT Bip01_R_Thigh
					{
						OFFSET -8.297779 -5.916794 10.541781
						CHANNELS 3 Xrotation Yrotation Zrotation
						JOINT Bip01_R_Calf
						{
							OFFSET 5.631542 -22.906792 0.862690
							CHANNELS 3 Xrotation Yrotation Zrotation
							JOINT Bip01_R_HorseLink
							{
								OFFSET -16.984341 -19.231926 -3.555767
								CHANNELS 3 Xrotation Yrotation Zrotation
								JOINT Bip01_R_Foot
								{
									OFFSET 4.290367 -24.783146 0.578056
									CHANNELS 3 Xrotation Yrotation Zrotation
									JOINT Bip01_R_Toe0
									{
										OFFSET 3.561211 -5.815116 0.760802
										CHANNELS 3 Xrotation Yrotation Zrotation
										JOINT Bip01_R_Toe0Nub
										{
											OFFSET 16.135469 0.002017 1.534789
											CHANNELS 3 Xrotation Yrotation Zrotation
											End Site
											{
												OFFSET -0.000002 16.208284 -0.000056
											}
										}
									}
								}
							}
						}
					}
					JOINT Bip01_L_Thigh
					{
						OFFSET -8.297813 -5.916832 -10.541739
						CHANNELS 3 Xrotation Yrotation Zrotation
						JOINT Bip01_L_Calf
						{
							OFFSET 5.631535 -22.906792 -0.862625
							CHANNELS 3 Xrotation Yrotation Zrotation
							JOINT Bip01_L_HorseLink
							{
								OFFSET -16.984318 -19.231949 3.555875
								CHANNELS 3 Xrotation Yrotation Zrotation
								JOINT Bip01_L_Foot
								{
									OFFSET 4.290367 -24.783169 -0.577965
									CHANNELS 3 Xrotation Yrotation Zrotation
									JOINT Bip01_L_Toe0
									{
										OFFSET 3.561245 -5.815111 -0.760799
										CHANNELS 3 Xrotation Yrotation Zrotation
										JOINT Bip01_L_Toe0Nub
										{
											OFFSET 6.574303 -0.000005 -1.538561
											CHANNELS 3 Xrotation Yrotation Zrotation
											End Site
											{
												OFFSET 0.000004 -6.751935 0.000023
											}
										}
									}
								}
							}
						}
					}
					JOINT Bip01_Spine1
					{
						OFFSET 20.556803 -4.626213 -0.000025
						CHANNELS 3 Xrotation Yrotation Zrotation
						JOINT Saddle
						{
							OFFSET 17.608810 18.174690 -0.000143
							CHANNELS 3 Xrotation Yrotation Zrotation
							End Site
							{
								OFFSET -0.000063 -0.000061 -22.448387
							}
						}
						JOINT BN_center
						{
							OFFSET 10.743275 -13.417107 -0.172041
							CHANNELS 3 Xrotation Yrotation Zrotation
							End Site
							{
								OFFSET 22.434088 0.553078 -0.579614
							}
						}
						JOINT Bip01_Spine2
						{
							OFFSET 24.765072 -2.054115 -0.000032
							CHANNELS 3 Xrotation Yrotation Zrotation
							JOINT Handle
							{
								OFFSET 63.735676 16.430748 -16.052464
								CHANNELS 3 Xrotation Yrotation Zrotation
								JOINT IK_Chain01
								{
									OFFSET -4.713058 -6.020439 0.185448
									CHANNELS 3 Xrotation Yrotation Zrotation
									End Site
									{
										OFFSET -0.000023 -0.000023 -7.648071
									}
								}
							}
							JOINT BN_hair04_01
							{
								OFFSET 1.987491 16.256981 -2.049672
								CHANNELS 3 Xrotation Yrotation Zrotation
								JOINT BN_hair04_02
								{
									OFFSET -1.318762 -3.831451 -6.174704
									CHANNELS 3 Xrotation Yrotation Zrotation
									JOINT BN_hair04_03
									{
										OFFSET -0.827490 -5.886627 -5.656666
										CHANNELS 3 Xrotation Yrotation Zrotation
										End Site
										{
											OFFSET -2.658262 5.010620 -5.929780
										}
									}
								}
							}
							JOINT Bip01_Neck
							{
								OFFSET 25.574577 9.433014 -0.000084
								CHANNELS 3 Xrotation Yrotation Zrotation
								JOINT Bip01_R_Clavicle
								{
									OFFSET -16.535652 0.011192 6.705692
									CHANNELS 3 Xrotation Yrotation Zrotation
									JOINT Bip01_R_UpperArm
									{
										OFFSET 20.272621 -12.959984 2.510816
										CHANNELS 3 Xrotation Yrotation Zrotation
										JOINT Bip01_R_Forearm
										{
											OFFSET -13.633509 -15.503704 -0.653585
											CHANNELS 3 Xrotation Yrotation Zrotation
											JOINT Bip01_R_Hand
											{
												OFFSET 2.580030 -27.804676 -1.136415
												CHANNELS 3 Xrotation Yrotation Zrotation
												JOINT Bip01_R_Finger0
												{
													OFFSET -0.281744 -19.659061 -0.398649
													CHANNELS 3 Xrotation Yrotation Zrotation
													JOINT Bip01_Xtra02
													{
														OFFSET 4.152210 -5.712314 0.433813
														CHANNELS 3 Xrotation Yrotation Zrotation
														JOINT Bip01_Xtra02Nub
														{
															OFFSET 15.457960 0.041654 0.507982
															CHANNELS 3 Xrotation Yrotation Zrotation
															End Site
															{
																OFFSET -15.421730 -0.157725 -1.163459
															}
														}
													}
													JOINT Bip01_R_Finger0Nub
													{
														OFFSET 8.362326 -9.718440 -0.143142
														CHANNELS 3 Xrotation Yrotation Zrotation
														End Site
														{
															OFFSET -1.213036 -0.198171 9.872291
														}
													}
												}
											}
										}
									}
								}
								JOINT Bip01_L_Clavicle
								{
									OFFSET -16.535673 0.011162 -6.705583
									CHANNELS 3 Xrotation Yrotation Zrotation
									JOINT Bip01_L_UpperArm
									{
										OFFSET 20.272615 -12.959999 -2.510836
										CHANNELS 3 Xrotation Yrotation Zrotation
										JOINT Bip01_L_Forearm
										{
											OFFSET -13.633495 -15.503681 0.653678
											CHANNELS 3 Xrotation Yrotation Zrotation
											JOINT Bip01_L_Hand
											{
												OFFSET 2.579988 -27.804686 1.136487
												CHANNELS 3 Xrotation Yrotation Zrotation
												JOINT Bip01_L_Finger0
												{
													OFFSET -0.281765 -19.659058 0.398696
													CHANNELS 3 Xrotation Yrotation Zrotation
													JOINT Bip01_Xtra01
													{
														OFFSET 4.083549 -5.738758 -0.666714
														CHANNELS 3 Xrotation Yrotation Zrotation
														JOINT Bip01_Xtra01Nub
														{
															OFFSET 6.758158 -0.395525 -0.023239
															CHANNELS 3 Xrotation Yrotation Zrotation
															End Site
															{
																OFFSET 6.764923 -0.254147 -0.029908
															}
														}
													}
													JOINT Bip01_L_Finger0Nub
													{
														OFFSET -0.012636 -9.629153 0.045740
														CHANNELS 3 Xrotation Yrotation Zrotation
														End Site
														{
															OFFSET 0.988407 0.004791 8.293357
														}
													}
												}
											}
										}
									}
								}
								JOINT BN_hair03_01
								{
									OFFSET -5.894140 16.270622 -2.498433
									CHANNELS 3 Xrotation Yrotation Zrotation
									JOINT BN_hair03_02
									{
										OFFSET -0.189278 -7.800507 -6.219162
										CHANNELS 3 Xrotation Yrotation Zrotation
										JOINT BN_hair03_03
										{
											OFFSET 0.612345 -10.844475 -3.370718
											CHANNELS 3 Xrotation Yrotation Zrotation
											End Site
											{
												OFFSET -2.273296 2.862007 -10.769416
											}
										}
									}
								}
								JOINT Bip01_Neck1
								{
									OFFSET 9.383755 11.908699 -0.000007
									CHANNELS 3 Xrotation Yrotation Zrotation
									JOINT BN_hair02_01
									{
										OFFSET 9.126320 18.808022 -1.420810
										CHANNELS 3 Xrotation Yrotation Zrotation
										JOINT BN_hair02_02
										{
											OFFSET 0.393478 -5.181091 -5.248574
											CHANNELS 3 Xrotation Yrotation Zrotation
											JOINT BN_hair02_03
											{
												OFFSET 0.762280 -8.167076 -0.230047
												CHANNELS 3 Xrotation Yrotation Zrotation
												End Site
												{
													OFFSET -0.025837 -1.251419 -8.109770
												}
											}
										}
									}
									JOINT Bip01_Head
									{
										OFFSET 14.266129 10.475403 -0.000008
										CHANNELS 3 Xrotation Yrotation Zrotation
										JOINT BN_Reins_01
										{
											OFFSET 18.547455 -15.740112 -0.000035
											CHANNELS 3 Xrotation Yrotation Zrotation
											JOINT BN_Reins_02
											{
												OFFSET -5.372810 -5.884506 0.000028
												CHANNELS 3 Xrotation Yrotation Zrotation
												JOINT BN_Reins_03
												{
													OFFSET -6.395866 -15.947449 0.000070
													CHANNELS 3 Xrotation Yrotation Zrotation
													JOINT BN_Halter_R_01
													{
														OFFSET -1.234055 -3.096100 7.096737
														CHANNELS 3 Xrotation Yrotation Zrotation
														End Site
														{
															OFFSET 10.514435 -4.176861 -0.000004
														}
													}
													JOINT BN_Halter_L_01
													{
														OFFSET -1.234062 -3.096146 -7.096726
														CHANNELS 3 Xrotation Yrotation Zrotation
														End Site
														{
															OFFSET -10.514435 4.176865 -0.000000
														}
													}
													JOINT BN_Reins_04
													{
														OFFSET -6.737644 -16.971684 0.000074
														CHANNELS 3 Xrotation Yrotation Zrotation
														JOINT BN_Halter_R_02
														{
															OFFSET -4.688869 -11.781956 7.096771
															CHANNELS 3 Xrotation Yrotation Zrotation
															End Site
															{
																OFFSET 14.669624 -5.827511 -0.000006
															}
														}
														JOINT BN_Halter_L_02
														{
															OFFSET -4.688892 -11.782017 -7.096693
															CHANNELS 3 Xrotation Yrotation Zrotation
															End Site
															{
																OFFSET -14.669624 5.827507 -0.000002
															}
														}
														JOINT BN_Reins_05
														{
															OFFSET -6.822578 -16.971161 0.000074
															CHANNELS 3 Xrotation Yrotation Zrotation
															JOINT BN_Reins_06
															{
																OFFSET -6.140354 -15.095148 0.000066
																CHANNELS 3 Xrotation Yrotation Zrotation
																End Site
																{
																	OFFSET -15.095150 6.140352 -0.000002
																}
															}
														}
													}
												}
											}
										}
										JOINT BN_hair01_01
										{
											OFFSET 8.957344 8.870956 0.112121
											CHANNELS 3 Xrotation Yrotation Zrotation
											JOINT BN_hair01_02
											{
												OFFSET 6.002075 -2.962952 -3.121264
												CHANNELS 3 Xrotation Yrotation Zrotation
												End Site
												{
													OFFSET 5.917702 3.813591 -2.232396
												}
											}
										}
										JOINT BN_Eyebrow_R
										{
											OFFSET 11.795959 -0.430496 4.449781
											CHANNELS 3 Xrotation Yrotation Zrotation
											JOINT Bip01_Xtra06Nub
											{
												OFFSET 2.936661 -0.262573 3.246701
												CHANNELS 3 Xrotation Yrotation Zrotation
												End Site
												{
													OFFSET 2.768745 0.208199 3.394807
												}
											}
										}
										JOINT BN_Eyebrow_L
										{
											OFFSET 11.586395 -0.445618 -4.441728
											CHANNELS 3 Xrotation Yrotation Zrotation
											JOINT Bip01_Xtra05Nub
											{
												OFFSET 3.244698 -0.349442 -4.416700
												CHANNELS 3 Xrotation Yrotation Zrotation
												End Site
												{
													OFFSET 3.053162 0.072495 -4.564033
												}
											}
										}
										JOINT Bip01_R_Ear_01
										{
											OFFSET 7.142960 7.567184 4.311657
											CHANNELS 3 Xrotation Yrotation Zrotation
											JOINT Bip01_Xtra04Nub
											{
												OFFSET 9.464531 9.264214 1.682953
												CHANNELS 3 Xrotation Yrotation Zrotation
												End Site
												{
													OFFSET 8.448181 10.159340 1.910823
												}
											}
										}
										JOINT Bip01__L_Ear_01
										{
											OFFSET 7.214943 7.717056 -4.356771
											CHANNELS 3 Xrotation Yrotation Zrotation
											JOINT Bip01_Xtra03Nub
											{
												OFFSET 9.230225 8.944366 -2.322746
												CHANNELS 3 Xrotation Yrotation Zrotation
												End Site
												{
													OFFSET 8.170288 9.841324 -2.643566
												}
											}
										}
										JOINT Bip01_Jaw
										{
											OFFSET 9.196068 -4.110695 -0.000013
											CHANNELS 3 Xrotation Yrotation Zrotation
											JOINT Bip01_Ponytail1Nub
											{
												OFFSET 10.976463 -21.082108 -0.000053
												CHANNELS 3 Xrotation Yrotation Zrotation
												End Site
												{
													OFFSET 11.247093 -20.938980 0.000113
												}
											}
										}
										JOINT Bip01_HeadNub
										{
											OFFSET 29.954575 -18.249489 -0.000063
											CHANNELS 3 Xrotation Yrotation Zrotation
											End Site
											{
												OFFSET -9.198448 -13.366348 0.000168
											}
										}
									}
								}
							}
						}
					}
				}
			}
		}
	}
}
MOTION
Frames: 4
Frame Time: 0.033333
0.000000 0.000000 0.000000 0.000008 0.000000 -0.000000 -0.000000 0.000000 -0.000000 175.978144 -207.424239 -123.053262 0.003483 0.000000 -0.000022 -4.414545 20.166443 18.545490 -9.765298 22.725457 22.214220 -14.405497 36.506931 18.991368 -6.167251 24.602760 13.043868 1.180040 -8.055131 6.850143 -6.112505 -5.700789 9.548955 -31.816889 5.286554 -17.146160 10.805852 -6.312857 -66.762633 -9.938878 -15.540402 108.714823 35.625553 -35.914166 -91.787948 -1.250705 -0.064064 5.863917 0.000110 -0.000141 0.000007 9.906956 3.674046 0.323460 -11.295601 7.441730 -72.932883 10.368760 14.297064 101.957936 -31.316144 0.042586 -91.600329 -0.418723 0.007171 -1.959969 0.006868 -0.001055 0.038946 -11.062769 -10.206119 -29.167179 0.917531 -0.020778 6.784378 0.083437 -0.094995 0.018163 -9.851643 -3.272379 -19.838619 0.000079 -0.000113 -0.000071 -0.000052 -0.014927 0.015041 -0.008346 0.000142 0.012247 -1.926375 4.099249 -3.851272 6.846407 4.912574 -7.549690 5.712734 -6.378754 -45.829381 -8.439230 0.242868 45.343488 -4.661596 -3.473486 -23.795882 0.236196 -1.104986 27.824929 2.799701 11.109940 8.716529 2.514565 -2.617545 -24.360662 -1.002601 -0.004209 -0.069916 -0.802186 0.160617 -0.479853 -0.804185 0.123491 -0.482623 -8.602003 0.354378 45.813897 16.179373 -9.385700 -6.943483 -0.182243 0.986185 24.640645 -5.385198 10.046602 -0.106002 1.919716 0.585545 -26.401389 2.691533 2.076667 -0.752304 0.028194 0.072067 2.451926 -0.000913 0.100573 2.451954 -0.041587 -0.001076 0.050772 -4.904795 0.707443 -3.192131 -1.137709 0.854853 -2.644768 8.441474 -13.216174 -7.112413 -0.020562 0.003933 0.021277 -1.242148 0.215342 -4.057921 -4.471591 -0.207309 -0.974791 -4.815849 23.688766 24.445916 -0.000028 0.000322 33.480068 -0.441789 -0.458727 -72.796122 -0.000060 -0.000071 -21.994015 0.000020 -0.000008 -0.026803 0.000003 -0.000016 0.012747 -0.000094 -0.000108 -34.639902 0.000035 0.000013 0.015163 0.000025 -0.000010 0.012723 -0.000048 -0.000054 -24.223459 0.000012 -0.000018 -0.000046 -0.073011 0.030655 0.020254 -10.608377 -0.145205 -6.417679 0.124854 -0.009512 -0.099901 0.018770 -0.023319 11.778584 -0.105457 -0.005180 -0.072493 0.023206 -0.032333 11.716000 0.089451 -0.130630 0.175110 0.050252 0.015093 11.755988 -0.154121 0.027257 -0.044363 0.050120 0.014755 11.743147 0.646567 0.597927 -1.496401 -0.004369 -0.052743 11.750687 0.000071 -0.000033 11.750674 
0.000000 0.000000 0.000000 0.000008 0.000000 -0.000000 -0.000000 0.000000 -0.000000 176.955435 -203.477018 -127.489237 0.003483 -0.000002 -0.000024 -3.383687 16.521596 19.545546 -7.944433 20.691298 19.634876 -13.207087 39.026646 14.695343 -7.128745 27.827041 13.463956 1.156505 -7.900919 6.846304 -5.504280 -5.460033 9.655676 -34.187528 4.615336 -12.444288 10.722942 -6.149898 -65.846582 -10.261652 -14.657270 103.885606 37.589229 -33.846319 -89.673157 0.367552 2.944033 6.512967 0.000109 -0.000138 0.000006 12.052256 4.613735 -0.693112 -11.302105 7.459307 -73.026866 10.286531 14.577642 103.455810 -31.776673 1.586169 -88.286513 1.300503 1.463822 -1.813042 0.006868 -0.001054 0.038946 -9.611336 -9.448032 -26.574326 0.917530 -0.020778 6.784383 0.083411 -0.094995 0.018169 -9.132702 -1.767862 -17.287634 0.000079 -0.000113 -0.000068 -0.000050 -0.014927 0.015044 -0.008390 0.000135 0.012259 -1.525270 4.272004 -4.082503 6.605135 4.661341 -7.117615 5.554923 -5.651387 -46.539481 -7.807045 -0.238754 45.977442 -5.898545 -7.693586 -25.919931 0.236420 -1.105443 27.837348 4.417285 15.221010 4.741492 2.665769 -2.161450 -22.553075 -1.002514 -0.004209 -0.069911 -0.802213 0.160617 -0.479854 -0.804185 0.123490 -0.482625 -7.970367 -0.132560 46.445631 17.977734 -10.111327 -8.164990 -0.218045 1.067098 26.798618 -5.625630 10.106785 -4.437701 1.819080 -0.384718 -26.283811 2.691490 2.076738 -0.752317 0.028221 0.072068 2.451926 -0.000914 0.100574 2.451954 -0.041695 -0.001088 0.050786 -4.401713 0.768984 -3.286403 -1.436027 0.484785 -1.570823 7.727599 -12.168266 -5.814471 -0.020673 0.003927 0.021270 -2.210014 0.226904 -4.344641 -4.502035 -0.523826 -3.061140 -4.089230 21.943128 24.980630 -0.000031 0.000323 33.480071 -0.441786 -0.458726 -72.796122 -0.000060 -0.000073 -21.994012 0.000019 -0.000008 -0.026807 0.000003 -0.000014 0.012743 -0.000094 -0.000107 -34.639909 0.000035 0.000015 0.015163 0.000024 -0.000010 0.012718 -0.000048 -0.000053 -24.223461 0.000012 -0.000018 -0.000043 -0.073015 0.030655 0.020258 -10.880942 0.787705 -8.268007 0.124850 -0.009512 -0.099901 0.018783 -0.023307 11.778609 -0.105461 -0.005188 -0.072492 0.023221 -0.032329 11.715980 0.089451 -0.130629 0.175114 0.050268 0.015116 11.755995 -0.154123 0.027257 -0.044368 0.050130 0.014778 11.743130 0.646564 0.597927 -1.496400 -0.004506 -0.052575 11.750692 0.000069 -0.000032 11.750677 
0.000000 0.000000 0.000000 0.000008 0.000000 -0.000000 -0.000000 0.000000 -0.000000 178.141251 -199.451250 -131.873809 0.003486 0.000001 -0.000024 -2.361511 13.256817 20.574970 -6.233634 18.307472 17.056538 -11.414453 41.242697 9.983505 -8.036864 30.705061 13.901510 1.041806 -7.146062 6.832272 -4.836102 -5.317278 9.750063 -34.636238 3.609927 -7.408295 10.671785 -6.052454 -65.295229 -10.513276 -13.715776 98.895805 37.645356 -30.096928 -87.386608 2.735299 4.091492 6.730256 0.000110 -0.000139 0.000005 12.864845 5.323892 -3.238837 -11.214558 7.229849 -71.795349 10.203821 14.834741 104.840726 -30.826877 2.907851 -84.365902 2.529461 2.478637 -1.920285 0.006868 -0.001056 0.038946 -7.927943 -8.423911 -23.489085 0.917530 -0.020778 6.784381 0.083360 -0.095010 0.018161 -8.418386 0.071492 -14.598623 0.000079 -0.000114 -0.000069 -0.000052 -0.014927 0.015043 -0.008416 0.000133 0.012256 -0.947705 4.466510 -4.368227 6.370138 4.411292 -6.696536 5.359245 -4.735677 -47.340659 -6.999812 -0.821677 46.688711 -7.997701 -11.076936 -26.842116 0.182560 -0.986733 24.657852 5.948867 18.723480 2.944028 2.867431 -1.575268 -20.402538 -1.002674 -0.004256 -0.069916 -0.802240 0.160617 -0.479856 -0.804184 0.123491 -0.482624 -7.161087 -0.711989 47.155872 19.130665 -10.921581 -8.144636 -0.252775 1.138559 28.736351 -6.147826 10.111725 -11.181771 1.388387 -1.608551 -26.414645 2.691538 2.076574 -0.752285 0.028248 0.072068 2.451927 -0.000914 0.100573 2.451955 -0.041458 -0.001052 0.050772 -3.580783 0.866474 -3.432715 -1.360455 0.204481 -0.728575 6.806744 -10.885319 -4.142308 -0.020449 0.003950 0.021294 -2.765508 0.236303 -4.736316 -4.531994 -0.931276 -5.696870 -2.604891 18.852087 24.169203 -0.000029 0.000322 33.480068 -0.441790 -0.458725 -72.796143 -0.000060 -0.000072 -21.994012 0.000019 -0.000008 -0.026807 0.000002 -0.000015 0.012743 -0.000094 -0.000108 -34.639905 0.000036 0.000015 0.015166 0.000026 -0.000012 0.012723 -0.000047 -0.000053 -24.223469 0.000012 -0.000016 -0.000050 -0.073026 0.030657 0.020258 -10.876013 1.491838 -9.603564 0.124853 -0.009514 -0.099895 0.018798 -0.023310 11.778628 -0.105459 -0.005185 -0.072487 0.023237 -0.032327 11.715955 0.089451 -0.130629 0.175112 0.050293 0.015133 11.756006 -0.154122 0.027256 -0.044363 0.050143 0.014801 11.743131 0.646567 0.597926 -1.496405 -0.004489 -0.052597 11.750682 0.000071 -0.000033 11.750680 
0.000000 0.000000 0.000000 0.000008 0.000000 -0.000000 -0.000000 0.000000 -0.000000 179.396681 -195.309587 -136.237958 0.003484 0.000000 -0.000022 -1.373321 10.376169 21.651522 -4.749346 15.658980 14.661466 -9.255422 43.084441 5.217389 -8.870376 33.191171 14.337614 0.926342 -6.383695 6.819646 -4.115186 -5.246629 9.835949 -33.757404 2.560129 -2.110243 10.647116 -6.006259 -65.032881 -10.683156 -12.723788 93.761094 36.385886 -25.256016 -84.599447 5.712706 3.715887 6.561130 0.000110 -0.000137 0.000006 12.518183 5.798688 -6.466462 -11.031511 6.791912 -69.415902 10.163019 14.953951 105.487190 -28.543475 4.069299 -79.927543 3.357925 3.127607 -2.209781 0.006868 -0.001054 0.038946 -6.113789 -7.149097 -20.059912 0.917530 -0.020778 6.784383 0.083258 -0.094985 0.018163 -7.725717 2.139626 -11.825812 0.000078 -0.000113 -0.000069 -0.000051 -0.014928 0.015047 -0.008490 0.000112 0.012275 -0.634770 4.468717 -4.421177 6.134463 4.155105 -6.273950 5.140923 -3.648185 -48.182139 -6.032813 -1.479698 47.442716 -10.221751 -13.292260 -26.831684 0.100479 -0.759563 18.764941 6.694977 21.672885 3.674065 3.041260 -0.848734 -17.551033 -1.002916 -0.004127 -0.069956 -0.802295 0.160617 -0.479860 -0.804184 0.123491 -0.482624 -6.199017 -1.372788 47.909891 19.622787 -11.696453 -7.225037 -0.285160 1.200142 30.433277 -6.848002 10.176452 -19.578315 0.705022 -3.022697 -26.703542 2.691507 2.076523 -0.752306 0.028302 0.072068 2.451926 -0.000914 0.100573 2.451955 -0.041458 -0.001053 0.050771 -2.828640 0.818410 -3.137129 -1.147684 -0.023395 -0.007936 5.673709 -9.414249 -2.145694 -0.020473 0.003949 0.021299 -2.992568 0.219986 -4.830929 -4.226320 -1.209373 -7.440339 -0.814991 14.757759 22.305849 -0.000030 0.000324 33.480068 -0.441789 -0.458726 -72.796143 -0.000060 -0.000073 -21.994019 0.000019 -0.000009 -0.026803 0.000002 -0.000015 0.012747 -0.000094 -0.000108 -34.639902 0.000036 0.000016 0.015161 0.000026 -0.000010 0.012720 -0.000047 -0.000053 -24.223469 0.000012 -0.000017 -0.000046 -0.073029 0.030655 0.020257 -11.251208 1.494240 -9.772417 0.124851 -0.009514 -0.099896 0.018835 -0.023299 11.778671 -0.105450 -0.005163 -0.072485 0.023265 -0.032316 11.715908 0.089451 -0.130629 0.175116 0.050316 0.015183 11.756010 -0.154122 0.027257 -0.044365 0.050166 0.014849 11.743115 0.646566 0.597927 -1.496399 -0.004473 -0.052618 11.750684 0.000071 -0.000033 11.750675 
